<?xml version="1.0" encoding="UTF-8" standalone="no"?>
<svg
   xmlns:dc="http://purl.org/dc/elements/1.1/"
   xmlns:cc="http://creativecommons.org/ns#"
   xmlns:rdf="http://www.w3.org/1999/02/22-rdf-syntax-ns#"
   xmlns:svg="http://www.w3.org/2000/svg"
   xmlns="http://www.w3.org/2000/svg"
   version="1.1"
   id="Laag_1"
   x="0px"
   y="0px"
   viewBox="0 0 127.24603 111.8"
   enable-background="new 0 0 856 412"
   xml:space="preserve"
   width="100%"
   height="100%"><metadata
     id="metadata129"><rdf:RDF><cc:Work
         rdf:about=""><dc:format>image/svg+xml</dc:format><dc:type
           rdf:resource="http://purl.org/dc/dcmitype/StillImage" /><dc:title></dc:title></cc:Work></rdf:RDF></metadata><defs
     id="defs127" /><path
     d="m 31.973015,109.3 c -1.4,0 -2.5,-1.1 -2.5,-2.5 l 0,-62.6 -7,5.9 c -0.1,0.1 -0.2,0.1 -0.2,0.2 -1,0.6 -2.1,1 -3.2,1 -2,0 -3.8,-1 -4.9,-2.6 l -10.7,-16.1 c -1.8,-2.7 -1,-6.3 1.7,-8.1 l 29.7,-20.7 c 0.2,-0.1 0.4,-0.3 0.7,-0.3 0.1,0 2.8,-0.9 6.6,-1 l 3.1,0 c 0.7,0 1.4,0.3 1.8,0.8 0.5,0.5 0.7,1.2 0.6,1.9 0,0.1 0,0.3 -0.1,0.4 0.2,7.5 8.1,14.5 16.5,14.5 8.4,0 16.3,-7 16.5,-14.5 0,-0.1 0,-0.3 -0.1,-0.4 -0.1,-0.7 0.2,-1.4 0.6,-1.9 0.4,-0.5 1.1,-0.8 1.8,-0.8 l 6.1,0 c 2.4,0 4.3,1.1 4.5,1.2 0.1,0 0.1,0.1 0.2,0.1 l 28.699995,20.7 c 2.6,1.7 3.4,5.4 1.6,8.1 l -10.7,15.2 c -1,1.6 -2.9,2.6 -4.9,2.6 l 0,0 c -1.2,0 -2.3,-0.3 -3.2,-1 -0.1,0 -0.1,-0.1 -0.19999,-0.2 l -6.400005,-5.3 -0.2,62.9 c 0,1.4 -1.1,2.5 -2.5,2.5 l -63.9,0 z"
     id="path13"
     style="fill:#1111dd;stroke:none;stroke-opacity:1;fill-opacity:1" /><path
     d="m 89.073015,5 c 1.8,0 3.1,0.9 3.1,0.9 l 28.699995,20.6 c 1.6,1 2,3.1 0.9,4.7 l -10.7,15.1 c -0.59999,1 -1.69999,1.5 -2.8,1.5 -0.6,0 -1.3,-0.2 -1.9,-0.6 l -10.499995,-8.6 -0.2,68.2 -63.7,0 0,-68 -11.2,9.4 c -0.6,0.4 -1.2,0.6 -1.9,0.6 -1.1,0 -2.2,-0.5 -2.8,-1.5 l -10.6,-16.1 c -1,-1.6 -0.6,-3.6 0.9,-4.7 l 29.7,-20.7 c 0,0 2.4,-0.8 5.8,-0.9 l 3.1,0 c 0,0.1 0,0.2 0,0.2 0,0 0,0 0,0 0,0 0,0 0,0.2 0,9 9.1,17.3 19,17.3 9.9,0 19,-8.3 19,-17.3 0,-0.2 0,-0.2 0,-0.2 0,0 0,0 0,0 0,0 0,0 0,-0.2 l 5.9,0 0.2,0 c -0.1,0.1 0,0.1 0,0.1 m 0,-5 c 0,0 -0.1,0 0,0 l -0.2,0 -5.9,0 c -1.4,0 -2.7,0.6 -3.7,1.6 -0.9,1 -1.4,2.4 -1.3,3.8 0,0.1 0,0.2 0,0.4 -0.3,6.1 -7.1,11.9 -14,11.9 -6.9,0 -13.7,-5.8 -14,-11.9 0,-0.1 0,-0.2 0,-0.4 0.1,-1.4 -0.3,-2.8 -1.3,-3.8 -0.9,-1 -2.3,-1.6 -3.7,-1.6 l -3.1,0 c 0,0 -0.1,0 -0.1,0 -4,0.1 -6.9,1 -7.3,1.1 -0.5,0.2 -0.9,0.4 -1.3,0.7 l -29.5,20.6 c -3.8,2.6 -4.8,7.7 -2.3,11.6 l 10.7,16.1 c 1.6,2.3 4.2,3.7 7,3.7 1.6,0 3.2,-0.5 4.6,-1.4 0.2,-0.1 0.3,-0.2 0.5,-0.3 l 2.9,-2.5 0,57.2 c 0,2.8 2.2,5 5,5 l 63.8,0 c 2.8,0 4.999995,-2.2 4.999995,-5 l 0.1,-57.7 2.3,1.9 c 0.1,0.1 0.3,0.2 0.4,0.3 1.4,0.9 3,1.4 4.6,1.4 2.8,0 5.4,-1.4 6.9,-3.7 l 10.6,-15 c 0,0 0.1,-0.1 0.1,-0.1 2.5,-3.8 1.5,-9 -2.3,-11.5 L 94.973015,1.7 c -0.1,-0.1 -0.2,-0.1 -0.3,-0.2 -0.3,-0.2 -2.6,-1.5 -5.6,-1.5 l 0,0 z"
     id="path15"
     style="stroke:none;stroke-opacity:1;fill:#000000;fill-opacity:1" /></svg>