<?xml version="1.0" encoding="UTF-8" standalone="no"?>
<svg
   xmlns:dc="http://purl.org/dc/elements/1.1/"
   xmlns:cc="http://creativecommons.org/ns#"
   xmlns:rdf="http://www.w3.org/1999/02/22-rdf-syntax-ns#"
   xmlns:svg="http://www.w3.org/2000/svg"
   xmlns="http://www.w3.org/2000/svg"
   height="100%"
   width="100%"
   xml:space="preserve"
   enable-background="new 0 0 856 412"
   viewBox="0 0 127.24603 111.8"
   y="0px"
   x="0px"
   id="Laag_1"
   version="1.1"><metadata
     id="metadata129"><rdf:RDF><cc:Work
         rdf:about=""><dc:format>image/svg+xml</dc:format><dc:type
           rdf:resource="http://purl.org/dc/dcmitype/StillImage" /><dc:title></dc:title></cc:Work></rdf:RDF></metadata><defs
     id="defs127" /><path
     style="fill:#3333ff;stroke:none;stroke-opacity:1;fill-opacity:1"
     id="path4138"
     d="m 31.973015,109.3 c -1.4,0 -2.5,-1.1 -2.5,-2.5 l 0,-62.6 -7,5.9 c -0.1,0.1 -0.2,0.1 -0.2,0.2 -1,0.6 -2.1,1 -3.2,1 -2,0 -3.8,-1 -4.9,-2.6 l -10.7,-16.1 c -1.8,-2.7 -1,-6.3 1.7,-8.1 l 29.7,-20.7 c 0.2,-0.1 0.4,-0.3 0.7,-0.3 0.1,0 2.8,-0.9 6.6,-1 l 3.1,0 c 0.7,0 1.4,0.3 1.8,0.8 0.5,0.5 0.7,1.2 0.6,1.9 0,0.1 0,0.3 -0.1,0.4 0.2,7.5 8.1,14.5 16.5,14.5 8.4,0 16.3,-7 16.5,-14.5 0,-0.1 0,-0.3 -0.1,-0.4 -0.1,-0.7 0.2,-1.4 0.6,-1.9 0.4,-0.5 1.1,-0.8 1.8,-0.8 l 6.1,0 c 2.4,0 4.3,1.1 4.5,1.2 0.1,0 0.1,0.1 0.2,0.1 l 28.699995,20.7 c 2.6,1.7 3.4,5.4 1.6,8.1 l -10.7,15.2 c -1,1.6 -2.9,2.6 -4.9,2.6 l 0,0 c -1.2,0 -2.3,-0.3 -3.2,-1 -0.1,0 -0.1,-0.1 -0.19999,-0.2 l -6.400005,-5.3 -0.2,62.9 c 0,1.4 -1.1,2.5 -2.5,2.5 l -63.9,0 z" /><path
     id="path4135"
     d="M 42.173828 2.5 C 38.373828 2.6 35.672266 3.5 35.572266 3.5 C 35.272266 3.5 35.073047 3.7007812 34.873047 3.8007812 L 5.1738281 24.5 C 2.4738281 26.3 1.6726562 29.899609 3.4726562 32.599609 L 14.173828 48.699219 C 15.273828 50.299219 17.072266 51.300781 19.072266 51.300781 C 20.172266 51.300781 21.273438 50.900781 22.273438 50.300781 C 22.273437 50.200781 22.372656 50.199609 22.472656 50.099609 L 29.472656 44.199219 L 29.472656 54.453125 L 98.539062 54.453125 L 98.572266 43.900391 L 104.97266 49.199219 C 105.07265 49.299219 105.07383 49.400391 105.17383 49.400391 C 106.07383 50.100391 107.17305 50.400391 108.37305 50.400391 C 110.37305 50.400391 112.27344 49.400781 113.27344 47.800781 L 123.97266 32.599609 C 125.77266 29.899609 124.97305 26.2 122.37305 24.5 L 93.673828 3.8007812 C 93.573828 3.8007812 93.572656 3.6992188 93.472656 3.6992188 C 93.272656 3.5992187 91.372656 2.5 88.972656 2.5 L 82.873047 2.5 C 82.173047 2.5 81.472266 2.8007812 81.072266 3.3007812 C 80.672266 3.8007812 80.372656 4.4992187 80.472656 5.1992188 C 80.572656 5.2992187 80.572266 5.4996094 80.572266 5.5996094 C 80.372266 13.099609 72.472266 20.099609 64.072266 20.099609 C 55.672266 20.099609 47.772266 13.099609 47.572266 5.5996094 C 47.672266 5.4996094 47.673828 5.2992187 47.673828 5.1992188 C 47.773828 4.4992187 47.572266 3.8007812 47.072266 3.3007812 C 46.672266 2.8007812 45.973438 2.5 45.273438 2.5 L 42.173828 2.5 z M 29.472656 67.953125 L 29.472656 106.80078 C 29.472656 108.20078 30.572656 109.30078 31.972656 109.30078 L 95.873047 109.30078 C 97.273047 109.30078 98.373047 108.20078 98.373047 106.80078 L 98.496094 67.953125 L 29.472656 67.953125 z "
     style="fill:#dd0000;stroke:none;stroke-opacity:1;fill-opacity:1" /><path
     id="path13"
     d="M 42.173828 2.5 C 38.373828 2.6 35.672266 3.5 35.572266 3.5 C 35.272266 3.5 35.073047 3.7007812 34.873047 3.8007812 L 5.1738281 24.5 C 2.4738281 26.3 1.6726562 29.899609 3.4726562 32.599609 L 14.173828 48.699219 C 15.273828 50.299219 17.072266 51.300781 19.072266 51.300781 C 20.172266 51.300781 21.273438 50.900781 22.273438 50.300781 C 22.273437 50.200781 22.372656 50.199609 22.472656 50.099609 L 29.472656 44.199219 L 29.472656 106.80078 C 29.472656 108.20078 30.572656 109.30078 31.972656 109.30078 L 95.873047 109.30078 C 97.273047 109.30078 98.373047 108.20078 98.373047 106.80078 L 98.572266 43.900391 L 104.97266 49.199219 C 105.07265 49.299219 105.07383 49.400391 105.17383 49.400391 C 106.07383 50.100391 107.17305 50.400391 108.37305 50.400391 C 110.37305 50.400391 112.27344 49.400781 113.27344 47.800781 L 123.97266 32.599609 C 125.77266 29.899609 124.97305 26.2 122.37305 24.5 L 93.673828 3.8007812 C 93.573828 3.8007812 93.572656 3.6992188 93.472656 3.6992188 C 93.272656 3.5992187 91.372656 2.5 88.972656 2.5 L 82.873047 2.5 C 82.173047 2.5 81.472266 2.8007812 81.072266 3.3007812 C 80.672266 3.8007812 80.372656 4.4992187 80.472656 5.1992188 C 80.572656 5.2992187 80.572266 5.4996094 80.572266 5.5996094 C 80.372266 13.099609 72.472266 20.099609 64.072266 20.099609 C 55.672266 20.099609 47.772266 13.099609 47.572266 5.5996094 C 47.672266 5.4996094 47.673828 5.2992187 47.673828 5.1992188 C 47.773828 4.4992187 47.572266 3.8007812 47.072266 3.3007812 C 46.672266 2.8007812 45.973438 2.5 45.273438 2.5 L 42.173828 2.5 z M 30.792969 41.214844 L 96.404297 41.214844 L 96.404297 67.980469 L 30.792969 67.980469 L 30.792969 41.214844 z "
     style="fill:#ffffff;stroke:none;stroke-opacity:1;fill-opacity:1" /><path
     style="stroke:none;stroke-opacity:1;fill:#000000;fill-opacity:1"
     id="path15"
     d="m 89.073015,5 c 1.8,0 3.1,0.9 3.1,0.9 l 28.699995,20.6 c 1.6,1 2,3.1 0.9,4.7 l -10.7,15.1 c -0.59999,1 -1.69999,1.5 -2.8,1.5 -0.6,0 -1.3,-0.2 -1.9,-0.6 l -10.499995,-8.6 -0.2,68.2 -63.7,0 0,-68 -11.2,9.4 c -0.6,0.4 -1.2,0.6 -1.9,0.6 -1.1,0 -2.2,-0.5 -2.8,-1.5 l -10.6,-16.1 c -1,-1.6 -0.6,-3.6 0.9,-4.7 l 29.7,-20.7 c 0,0 2.4,-0.8 5.8,-0.9 l 3.1,0 c 0,0.1 0,0.2 0,0.2 0,0 0,0 0,0 0,0 0,0 0,0.2 0,9 9.1,17.3 19,17.3 9.9,0 19,-8.3 19,-17.3 0,-0.2 0,-0.2 0,-0.2 0,0 0,0 0,0 0,0 0,0 0,-0.2 l 5.9,0 0.2,0 c -0.1,0.1 0,0.1 0,0.1 m 0,-5 c 0,0 -0.1,0 0,0 l -0.2,0 -5.9,0 c -1.4,0 -2.7,0.6 -3.7,1.6 -0.9,1 -1.4,2.4 -1.3,3.8 0,0.1 0,0.2 0,0.4 -0.3,6.1 -7.1,11.9 -14,11.9 -6.9,0 -13.7,-5.8 -14,-11.9 0,-0.1 0,-0.2 0,-0.4 0.1,-1.4 -0.3,-2.8 -1.3,-3.8 -0.9,-1 -2.3,-1.6 -3.7,-1.6 l -3.1,0 c 0,0 -0.1,0 -0.1,0 -4,0.1 -6.9,1 -7.3,1.1 -0.5,0.2 -0.9,0.4 -1.3,0.7 l -29.5,20.6 c -3.8,2.6 -4.8,7.7 -2.3,11.6 l 10.7,16.1 c 1.6,2.3 4.2,3.7 7,3.7 1.6,0 3.2,-0.5 4.6,-1.4 0.2,-0.1 0.3,-0.2 0.5,-0.3 l 2.9,-2.5 0,57.2 c 0,2.8 2.2,5 5,5 l 63.8,0 c 2.8,0 4.999995,-2.2 4.999995,-5 l 0.1,-57.7 2.3,1.9 c 0.1,0.1 0.3,0.2 0.4,0.3 1.4,0.9 3,1.4 4.6,1.4 2.8,0 5.4,-1.4 6.9,-3.7 l 10.6,-15 c 0,0 0.1,-0.1 0.1,-0.1 2.5,-3.8 1.5,-9 -2.3,-11.5 L 94.973015,1.7 c -0.1,-0.1 -0.2,-0.1 -0.3,-0.2 -0.3,-0.2 -2.6,-1.5 -5.6,-1.5 l 0,0 z" /></svg>