<?xml version="1.0" encoding="UTF-8" standalone="no"?>
<svg
   xmlns:dc="http://purl.org/dc/elements/1.1/"
   xmlns:cc="http://creativecommons.org/ns#"
   xmlns:rdf="http://www.w3.org/1999/02/22-rdf-syntax-ns#"
   xmlns:svg="http://www.w3.org/2000/svg"
   xmlns="http://www.w3.org/2000/svg"
   id="svg2"
   x="0px"
   y="0px"
   version="1.1"
   width="100%"
   height="100%"
   viewBox="0 0 127.24603 111.8"
   xml:space="preserve"
   enable-background="new 0 0 856 412"><metadata
     id="metadata16"><rdf:RDF><cc:Work
         rdf:about=""><dc:format>image/svg+xml</dc:format><dc:type
           rdf:resource="http://purl.org/dc/dcmitype/StillImage" /><dc:title></dc:title></cc:Work></rdf:RDF></metadata><defs
     id="defs14" /><path
     d="m 32,109 c -1.4,0 -2.5,-1.1 -2.5,-2.5 l 0,-62.6 -7,5.9 c -0.1,0.1 -0.2,0.1 -0.2,0.2 -1,0.6 -2.1,1 -3.2,1 -2,0 -3.8,-1 -4.9,-2.6 L 3.5,32.3 C 1.7,29.6 2.5,26 5.2,24.2 L 34.9,3.5 c 0.2,-0.1 0.4,-0.3 0.7,-0.3 0.1,0 2.8,-0.9 6.6,-1 l 3.1,0 c 0.7,0 1.4,0.3 1.8,0.8 0.5,0.5 0.7,1.2 0.6,1.9 0,0.1 0,0.3 -0.1,0.4 0.2,7.5 8.1,14.5 16.5,14.5 8.4,0 16.3,-7 16.5,-14.5 0,-0.1 0,-0.3 -0.1,-0.4 C 80.4,4.2 80.7,3.5 81.1,3 81.5,2.5 82.2,2.2 82.9,2.2 l 6.1,0 c 2.4,0 4.3,1.1 4.5,1.2 0.1,0 0.1,0.1 0.2,0.1 l 28.7,20.7 c 2.6,1.7 3.4,5.4 1.6,8.1 l -10.7,15.2 c -1,1.6 -2.9,2.6 -4.9,2.6 -1.2,0 -2.3,-0.3 -3.2,-1 -0.1,0 -0.1,-0.1 -0.2,-0.2 l -6.4,-5.3 -0.2,62.9 c 0,1.4 -1.1,2.5 -2.5,2.5 L 32,109 Z"
     id="path6"
     style="fill:#ffffff" /><path
     d="m 44.7,2.5 0,106 13,1 0,-90.2 C 52,16.9 47.7,11.6 47.6,6.1 47.7,6 47.7,5.8 47.7,5.7 47.8,5 47.6,4.3 47.1,3.8 46.7,3.3 46,3 45.3,3 l -0.6,0 z m 38.2,0 c -0.7,0 -1.4,0.3 -1.8,0.8 -0.4,0.5 -0.7,1.2 -0.6,1.9 0.1,0.1 0.1,0.3 0.1,0.4 -0.2,5.5 -4.5,10.8 -10.1,13.2 l 0,90.2 12.6,0 0,-106 -0.2,-0.5 z m 13,2.94 0,2.86 28.1,19.7 -7,10.2 -21.1,-14.8 0,85.6 c 1.4,0 2.5,-1 2.5,-2 l 0.2,-63.1 6.4,5.3 0,0.2 c 1,0.7 2,1 3,1 2,0 4,-1 5,-2.6 l 11,-15.2 c 2,-2.7 1,-6.4 -2,-8.1 L 95.9,5.4 Z M 31.9,5.9 5.2,24.5 c -2.73,1.8 -3.53,5.4 -1.73,8.1 l 10.7,16.1 c 1.1,1.6 2.9,2.6 4.9,2.6 1.1,0 2.2,-0.4 3.2,-1 0,-0.1 0.1,-0.1 0.2,-0.2 l 7,-5.9 0,62.8 c 0,1 1,2 2.4,2 l 0,-85.2 L 10.27,38.9 3.12,28.8 31.92,8.6 31.82,5.9 Z"
     id="path8"
     style="fill:#7700aa;fill-opacity:1" /><path
     d="m 89.1,5 c 1.8,0 3.1,0.9 3.1,0.9 l 28.7,20.6 c 1.6,1 2,3.1 0.9,4.7 l -10.7,15.1 c -0.6,1 -1.7,1.5 -2.8,1.5 -0.6,0 -1.3,-0.2 -1.9,-0.6 l -10.5,-8.6 -0.2,68.2 -63.7,0 0,-68 -11.2,9.4 c -0.6,0.4 -1.2,0.6 -1.9,0.6 -1.1,0 -2.2,-0.5 -2.8,-1.5 L 5.5,31.2 C 4.5,29.6 4.9,27.6 6.4,26.5 L 36.1,5.8 c 0,0 2.4,-0.8 5.8,-0.9 l 3.1,0 0,0.2 0,0.2 c 0,9 9.1,17.3 19,17.3 9.9,0 19,-8.3 19,-17.3 l 0,-0.2 0,-0.2 5.9,0 0.2,0 C 89,5 89.1,5 89.1,5 m 0,-5 c 0,0 -0.1,0 0,0 L 88.9,0 83,0 C 81.6,0 80.3,0.6 79.3,1.6 78.4,2.6 77.9,4 78,5.4 l 0,0.4 C 77.7,11.9 70.9,17.7 64,17.7 57.1,17.7 50.3,11.9 50,5.8 L 50,5.4 C 50.1,4 49.7,2.6 48.7,1.6 47.8,0.6 46.4,0 45,0 L 41.9,0 41.8,0 C 37.8,0.1 34.9,1 34.5,1.1 34,1.3 33.6,1.5 33.2,1.8 L 3.7,22.4 C -0.1,25 -1.1,30.1 1.4,34 l 10.7,16.1 c 1.6,2.3 4.2,3.7 7,3.7 1.6,0 3.2,-0.5 4.6,-1.4 0.2,-0.1 0.3,-0.2 0.5,-0.3 l 2.9,-2.5 0,57.2 c 0,2.8 2.2,5 5,5 l 63.8,0 c 2.8,0 5,-2.2 5,-5 l 0.1,-57.7 2.3,1.9 c 0.1,0.1 0.3,0.2 0.4,0.3 1.4,0.9 3,1.4 4.6,1.4 2.8,0 5.4,-1.4 6.9,-3.7 l 10.6,-15 0.1,-0.1 c 2.5,-3.8 1.5,-9 -2.3,-11.5 L 95.6,1.5 C 95.5,1.4 95.4,1.4 95.3,1.3 95,1.1 92.7,-0.2 89.7,-0.2 Z"
     id="path10" /></svg>